<svg viewBox="0 0 128 128" xml:space="preserve" xmlns="http://www.w3.org/2000/svg" fill-rule="evenodd" clip-rule="evenodd" stroke-linejoin="round" stroke-miterlimit="1.41421"><path d="M.359.21h128v128h-128z" fill="none"></path><path d="M96.71 30.32c1.177.467 1.307.708 1.382 1.902 0 22.128.07 44.256 0 66.383-.077 8.095-7.003 15.535-15.617 15.617-12.255.039-24.511.039-36.766 0-8.141-.077-15.536-7.143-15.617-15.617V32.222s.927-3.049 3.072-1.688c.565.358.885 1.004.928 1.688 0 22.145-.209 44.29.001 66.434.095 6.006 5.239 11.465 11.566 11.565 12.288.117 24.578.117 36.866 0 6.073-.096 11.547-5.36 11.567-11.72V32.222c.08-1.271 1.244-2.255 2.618-1.902Zm-32.394 4.415a2.113 2.113 0 0 1 1.776 1.987v64c-.104 1.852-.918 1.891-1.776 1.988-1.119.126-2.16-.839-2.224-1.988v-64c.064-1.135.98-2.057 2.224-1.987Zm16 0a2.113 2.113 0 0 1 1.776 1.987v64c-.091 1.622-2.212 2.617-3.414 1.415-.349-.349-.54-.587-.586-1.415v-64c.064-1.135.98-2.057 2.224-1.987Zm-32 0a2.113 2.113 0 0 1 1.776 1.987v64c-.092 1.638-2.256 2.573-3.414 1.415-.349-.349-.54-.587-.586-1.415v-64c.064-1.135.98-2.057 2.224-1.987Zm57.276-7.513h-82.5l-.251-.015c-1.7-.325-1.692-1.009-1.745-1.859-.068-1.079.867-2.055 1.996-2.126h23l.001-5.589c.068-1.785 1.587-3.34 3.41-3.41 9.7-.122 19.401-.001 29.102-.001 1.838.023 3.463 1.609 3.487 3.488v5.512h23.5s3.239 1.223 1.541 3.275c-.372.45-.94.688-1.541.725Zm-55.5-4h28v-5h-28v5Z" fill="#e81212" class="fill-000000"></path></svg>